<?xml version="1.0" standalone="no"?>
<!DOCTYPE svg PUBLIC "-//W3C//DTD SVG 20010904//EN"
 "http://www.w3.org/TR/2001/REC-SVG-20010904/DTD/svg10.dtd">
<svg version="1.0" xmlns="http://www.w3.org/2000/svg"
 width="16.000000pt" height="16.000000pt" viewBox="0 0 16.000000 16.000000"
 preserveAspectRatio="xMidYMid meet">
<metadata>
Created by potrace 1.11, written by Peter Selinger 2001-2013
</metadata>
<g transform="translate(0.000000,16.000000) scale(0.008333,-0.008333)"
fill="#000000" stroke="none">
<path d="M787 1914 c-1 -1 -33 -4 -72 -7 -219 -19 -363 -92 -440 -223 -53 -91
-72 -239 -49 -384 4 -25 8 -81 8 -125 1 -79 1 -80 -24 -81 -77 -2 -128 -38
-148 -104 -31 -102 37 -210 132 -210 18 0 26 -6 27 -17 1 -26 -2 -152 -6 -280
l-4 -112 33 -48 c47 -68 155 -156 255 -206 91 -46 93 -47 211 -77 157 -40 332
-45 494 -16 183 33 362 150 463 302 39 59 36 24 29 339 -3 108 -1 115 31 115
97 0 169 120 128 216 -29 69 -69 98 -132 95 -36 -2 -37 0 -35 94 2 133 1 293
-2 310 -2 11 -7 40 -11 65 -34 204 -203 322 -495 346 -63 5 -388 12 -393 8z"/>
</g>
</svg>
